<svg xmlns="http://www.w3.org/2000/svg" xmlns:xlink="http://www.w3.org/1999/xlink" xmlns:inkscape="http://www.inkscape.org/namespaces/inkscape" version="1.1" width="991.25" height="861.25" viewBox="0 0 991.25 861.25">
<defs>
<clipPath id="clip_2">
<path transform="matrix(1,0,0,-1,0,861.25)" d="M0 861.25H991.25V0H0Z"/>
</clipPath>
</defs>
<g clip-path="url(#clip_2)">
<path transform="matrix(1,0,0,-1,570.5709,529.8685)" d="M0 0C.001 .003-.002 .006-.005 .006-28.869 .006-54.406 0-79.942 .008-133.185 .022-186.432-.356-239.671 .146-348.689 1.175-421.411 86.623-402.332 193.612-390.13 262.037-374.417 329.849-359.279 397.713-357.943 403.702-349.301 412.322-343.864 412.464-296.288 413.703-249.351 408.866-206.324 386.373-165.923 365.253-151.833 334.733-160.718 290.221-166.094 263.286-172.756 236.605-177.932 209.635-183.675 179.713-168.716 160.397-138.481 159.942-86.967 159.166-35.426 160.15 16.088 159.341 31.767 159.095 36.152 166.115 38.99 180.075 53.184 249.9 68.89 319.418 82.982 389.263 86.37 406.053 91.622 413.989 110.891 413.605 175.988 412.308 241.128 413.11 310.348 413.11 310.355 413.11 310.359 413.104 310.358 413.098 292.494 328.516 275.254 246.886 257.157 161.204H343.165C343.167 161.204 343.168 161.202 343.168 161.2 331.415 105.274 320.607 53.845 309.4 .521 309.399 .516 309.395 .513 309.39 .513H223.894C218.034-25.714 212.343-50.478 206.987-75.314 195.583-128.19 183.837-181.002 173.388-234.068 170.505-248.714 164.817-255.475 149.772-252.592 107.917-244.571 64.569-240.984 24.58-227.451-22.57-211.494-37.491-174.656-26.723-126.174-17.661-85.373-9.371-44.4 0 0" fill="#231f20"/>
<path transform="matrix(1,0,0,-1,77.5112,783.7389)" d="M0 0C23.383 110.319 45.722 215.71 69.522 327.993 69.522 327.994 69.525 327.995 69.525 327.993 114.849 248.597 181.319 215.385 268.352 217.075 255.987 159.272 244.761 104.86 232.63 50.652 221.258-.168 220.836-.044 167.847-.009 113.097 .028 58.348 0 0 0" fill="#231f20"/>
</g>
</svg>
